<svg xmlns="http://www.w3.org/2000/svg" xmlns:xlink="http://www.w3.org/1999/xlink" width="1080" zoomAndPan="magnify" viewBox="0 0 810 809.999993" height="1080" preserveAspectRatio="xMidYMid meet" version="1.0"><defs><clipPath id="d38f1b765e"><path d="M 107.304688 112.484375 L 668.304688 112.484375 L 668.304688 673.484375 L 107.304688 673.484375 Z M 107.304688 112.484375 " clip-rule="nonzero"/></clipPath><clipPath id="ab9e031e43"><path d="M 141.554688 138.914062 L 668.804688 138.914062 L 668.804688 666.164062 L 141.554688 666.164062 Z M 141.554688 138.914062 " clip-rule="nonzero"/></clipPath></defs><rect x="-81" width="972" fill="#ffffff" y="-80.999999" height="971.999992" fill-opacity="1"/><rect x="-81" width="972" fill="#ffffff" y="-80.999999" height="971.999992" fill-opacity="1"/><path fill="#f1f1f2" d="M 810.089844 405.042969 C 810.089844 181.953125 628.132812 0 405.042969 0 C 181.953125 0 0 181.953125 0 405.042969 C 0 628.132812 181.953125 810.089844 405.042969 810.089844 C 628.132812 810.089844 810.089844 628.132812 810.089844 405.042969 " fill-opacity="1" fill-rule="evenodd"/><path fill="#66b7af" d="M 369.230469 274.773438 L 369.230469 535.316406 C 369.230469 542.644531 363.273438 548.601562 355.945312 548.601562 L 298.292969 548.601562 C 290.964844 548.601562 285.007812 542.644531 285.007812 535.316406 L 285.007812 274.773438 C 285.007812 267.441406 290.964844 261.484375 298.292969 261.484375 L 355.945312 261.484375 C 363.273438 261.484375 369.230469 267.441406 369.230469 274.773438 " fill-opacity="1" fill-rule="evenodd"/><path fill="#66b7af" d="M 440.855469 535.316406 L 440.855469 274.773438 C 440.855469 267.441406 446.8125 261.484375 454.144531 261.484375 L 511.785156 261.484375 C 519.117188 261.484375 525.082031 267.441406 525.082031 274.773438 L 525.082031 535.316406 C 525.082031 542.644531 519.117188 548.601562 511.785156 548.601562 L 454.144531 548.601562 C 446.8125 548.601562 440.855469 542.644531 440.855469 535.316406 " fill-opacity="1" fill-rule="evenodd"/><g clip-path="url(#d38f1b765e)"><path fill="#f1f1f2" d="M 668.425781 393.042969 C 668.425781 397.636719 668.3125 402.222656 668.085938 406.808594 C 667.863281 411.394531 667.523438 415.972656 667.074219 420.542969 C 666.625 425.113281 666.0625 429.667969 665.390625 434.210938 C 664.714844 438.75 663.929688 443.273438 663.035156 447.777344 C 662.140625 452.28125 661.132812 456.761719 660.019531 461.214844 C 658.902344 465.667969 657.675781 470.089844 656.34375 474.484375 C 655.011719 478.878906 653.570312 483.238281 652.023438 487.5625 C 650.476562 491.882812 648.828125 496.167969 647.070312 500.410156 C 645.3125 504.652344 643.453125 508.847656 641.488281 513 C 639.527344 517.148438 637.460938 521.25 635.296875 525.296875 C 633.132812 529.347656 630.871094 533.339844 628.511719 537.28125 C 626.148438 541.21875 623.695312 545.097656 621.144531 548.914062 C 618.589844 552.730469 615.949219 556.484375 613.214844 560.171875 C 610.476562 563.859375 607.652344 567.480469 604.742188 571.027344 C 601.828125 574.578125 598.832031 578.054688 595.746094 581.457031 C 592.664062 584.859375 589.5 588.183594 586.25 591.429688 C 583.003906 594.675781 579.679688 597.839844 576.277344 600.925781 C 572.875 604.007812 569.398438 607.007812 565.851562 609.917969 C 562.300781 612.832031 558.683594 615.65625 554.996094 618.390625 C 551.308594 621.125 547.554688 623.769531 543.738281 626.320312 C 539.917969 628.871094 536.039062 631.328125 532.101562 633.6875 C 528.164062 636.046875 524.171875 638.3125 520.121094 640.476562 C 516.070312 642.640625 511.972656 644.703125 507.820312 646.667969 C 503.667969 648.628906 499.472656 650.488281 495.230469 652.246094 C 490.988281 654.003906 486.707031 655.65625 482.382812 657.203125 C 478.058594 658.75 473.703125 660.191406 469.308594 661.523438 C 464.914062 662.855469 460.488281 664.078125 456.035156 665.195312 C 451.582031 666.3125 447.101562 667.316406 442.601562 668.210938 C 438.097656 669.109375 433.574219 669.894531 429.03125 670.566406 C 424.492188 671.242188 419.933594 671.800781 415.363281 672.253906 C 410.796875 672.703125 406.21875 673.039062 401.632812 673.265625 C 397.046875 673.492188 392.457031 673.601562 387.867188 673.601562 C 383.273438 673.601562 378.683594 673.492188 374.097656 673.265625 C 369.511719 673.039062 364.933594 672.703125 360.367188 672.253906 C 355.796875 671.800781 351.242188 671.242188 346.699219 670.566406 C 342.15625 669.894531 337.632812 669.109375 333.132812 668.210938 C 328.628906 667.316406 324.148438 666.3125 319.695312 665.195312 C 315.242188 664.078125 310.816406 662.855469 306.421875 661.523438 C 302.027344 660.191406 297.671875 658.75 293.347656 657.203125 C 289.023438 655.65625 284.742188 654.003906 280.5 652.246094 C 276.257812 650.488281 272.0625 648.628906 267.910156 646.667969 C 263.761719 644.703125 259.660156 642.640625 255.609375 640.476562 C 251.5625 638.3125 247.566406 636.046875 243.628906 633.6875 C 239.691406 631.328125 235.8125 628.871094 231.996094 626.320312 C 228.175781 623.769531 224.425781 621.125 220.734375 618.390625 C 217.046875 615.65625 213.429688 612.832031 209.878906 609.917969 C 206.332031 607.007812 202.855469 604.007812 199.453125 600.925781 C 196.050781 597.839844 192.726562 594.675781 189.480469 591.429688 C 186.234375 588.183594 183.066406 584.859375 179.984375 581.457031 C 176.902344 578.054688 173.902344 574.578125 170.988281 571.027344 C 168.078125 567.480469 165.253906 563.859375 162.515625 560.171875 C 159.78125 556.484375 157.140625 552.730469 154.589844 548.914062 C 152.039062 545.097656 149.582031 541.21875 147.222656 537.28125 C 144.859375 533.339844 142.597656 529.347656 140.433594 525.296875 C 138.269531 521.25 136.207031 517.148438 134.242188 513 C 132.277344 508.847656 130.417969 504.652344 128.660156 500.410156 C 126.90625 496.167969 125.253906 491.882812 123.707031 487.5625 C 122.160156 483.238281 120.71875 478.878906 119.386719 474.484375 C 118.054688 470.089844 116.828125 465.667969 115.714844 461.214844 C 114.597656 456.761719 113.59375 452.28125 112.695312 447.777344 C 111.800781 443.273438 111.015625 438.75 110.34375 434.210938 C 109.667969 429.667969 109.105469 425.113281 108.65625 420.542969 C 108.207031 415.972656 107.867188 411.394531 107.644531 406.808594 C 107.417969 402.222656 107.304688 397.636719 107.304688 393.042969 C 107.304688 388.453125 107.417969 383.863281 107.644531 379.277344 C 107.867188 374.691406 108.207031 370.113281 108.65625 365.542969 C 109.105469 360.972656 109.667969 356.417969 110.34375 351.875 C 111.015625 347.335938 111.800781 342.8125 112.695312 338.308594 C 113.59375 333.804688 114.597656 329.328125 115.714844 324.871094 C 116.828125 320.417969 118.054688 315.996094 119.386719 311.601562 C 120.71875 307.207031 122.160156 302.847656 123.707031 298.523438 C 125.253906 294.203125 126.90625 289.917969 128.660156 285.675781 C 130.417969 281.433594 132.277344 277.238281 134.242188 273.089844 C 136.207031 268.9375 138.269531 264.835938 140.433594 260.789062 C 142.597656 256.738281 144.859375 252.746094 147.222656 248.804688 C 149.582031 244.867188 152.039062 240.988281 154.589844 237.171875 C 157.140625 233.355469 159.78125 229.601562 162.515625 225.914062 C 165.253906 222.226562 168.078125 218.605469 170.988281 215.058594 C 173.902344 211.507812 176.902344 208.03125 179.984375 204.628906 C 183.066406 201.226562 186.234375 197.902344 189.480469 194.65625 C 192.726562 191.410156 196.050781 188.246094 199.453125 185.160156 C 202.855469 182.078125 206.332031 179.082031 209.878906 176.167969 C 213.429688 173.253906 217.046875 170.429688 220.734375 167.695312 C 224.425781 164.960938 228.175781 162.316406 231.996094 159.765625 C 235.8125 157.214844 239.691406 154.757812 243.628906 152.398438 C 247.566406 150.039062 251.5625 147.777344 255.609375 145.609375 C 259.660156 143.445312 263.761719 141.382812 267.910156 139.417969 C 272.0625 137.457031 276.257812 135.597656 280.5 133.839844 C 284.742188 132.082031 289.023438 130.429688 293.347656 128.882812 C 297.671875 127.335938 302.027344 125.898438 306.421875 124.5625 C 310.816406 123.230469 315.242188 122.007812 319.695312 120.890625 C 324.148438 119.777344 328.628906 118.769531 333.132812 117.875 C 337.632812 116.976562 342.15625 116.195312 346.699219 115.519531 C 351.242188 114.847656 355.796875 114.285156 360.367188 113.835938 C 364.933594 113.382812 369.511719 113.046875 374.097656 112.820312 C 378.683594 112.59375 383.273438 112.484375 387.867188 112.484375 C 392.457031 112.484375 397.046875 112.59375 401.632812 112.820312 C 406.21875 113.046875 410.796875 113.382812 415.363281 113.835938 C 419.933594 114.285156 424.492188 114.847656 429.03125 115.519531 C 433.574219 116.195312 438.097656 116.976562 442.601562 117.875 C 447.101562 118.769531 451.582031 119.777344 456.035156 120.890625 C 460.488281 122.007812 464.914062 123.230469 469.308594 124.5625 C 473.703125 125.898438 478.058594 127.335938 482.382812 128.882812 C 486.707031 130.429688 490.988281 132.082031 495.230469 133.839844 C 499.472656 135.597656 503.667969 137.457031 507.820312 139.417969 C 511.972656 141.382812 516.070312 143.445312 520.121094 145.609375 C 524.171875 147.777344 528.164062 150.039062 532.101562 152.398438 C 536.039062 154.757812 539.917969 157.214844 543.738281 159.765625 C 547.554688 162.316406 551.308594 164.960938 554.996094 167.695312 C 558.683594 170.429688 562.300781 173.253906 565.851562 176.167969 C 569.398438 179.082031 572.875 182.078125 576.277344 185.160156 C 579.679688 188.246094 583.003906 191.410156 586.25 194.65625 C 589.5 197.902344 592.664062 201.226562 595.746094 204.628906 C 598.832031 208.03125 601.828125 211.507812 604.742188 215.058594 C 607.652344 218.605469 610.476562 222.226562 613.214844 225.914062 C 615.949219 229.601562 618.589844 233.355469 621.144531 237.171875 C 623.695312 240.988281 626.148438 244.867188 628.511719 248.804688 C 630.871094 252.746094 633.132812 256.738281 635.296875 260.789062 C 637.460938 264.835938 639.527344 268.9375 641.488281 273.089844 C 643.453125 277.238281 645.3125 281.433594 647.070312 285.675781 C 648.828125 289.917969 650.476562 294.203125 652.023438 298.523438 C 653.570312 302.847656 655.011719 307.207031 656.34375 311.601562 C 657.675781 315.996094 658.902344 320.417969 660.019531 324.871094 C 661.132812 329.328125 662.140625 333.804688 663.035156 338.308594 C 663.929688 342.8125 664.714844 347.335938 665.390625 351.875 C 666.0625 356.417969 666.625 360.972656 667.074219 365.542969 C 667.523438 370.113281 667.863281 374.691406 668.085938 379.277344 C 668.3125 383.863281 668.425781 388.453125 668.425781 393.042969 Z M 668.425781 393.042969 " fill-opacity="1" fill-rule="nonzero"/></g><g clip-path="url(#ab9e031e43)"><path fill="#000000" d="M 405.179688 138.914062 C 259.484375 138.914062 141.554688 256.820312 141.554688 402.539062 C 141.554688 548.238281 259.464844 666.164062 405.179688 666.164062 C 550.878906 666.164062 668.804688 548.257812 668.804688 402.539062 C 668.804688 256.839844 550.898438 138.914062 405.179688 138.914062 Z M 405.179688 635.148438 C 276.921875 635.148438 172.570312 530.800781 172.570312 402.539062 C 172.570312 274.277344 276.921875 169.929688 405.179688 169.929688 C 533.441406 169.929688 637.792969 274.277344 637.792969 402.539062 C 637.792969 530.800781 533.441406 635.148438 405.179688 635.148438 Z M 405.179688 635.148438 " fill-opacity="1" fill-rule="nonzero"/></g><path fill="#000000" d="M 544.746094 495.582031 L 387.007812 495.582031 C 380.605469 477.535156 363.367188 464.570312 343.152344 464.570312 C 322.9375 464.570312 305.699219 477.535156 299.296875 495.582031 L 265.617188 495.582031 C 257.050781 495.582031 250.109375 502.527344 250.109375 511.089844 C 250.109375 519.65625 257.050781 526.597656 265.617188 526.597656 L 299.296875 526.597656 C 305.699219 544.648438 322.9375 557.613281 343.152344 557.613281 C 363.367188 557.613281 380.605469 544.648438 387.007812 526.597656 L 544.746094 526.597656 C 553.3125 526.597656 560.253906 519.65625 560.253906 511.089844 C 560.253906 502.527344 553.3125 495.582031 544.746094 495.582031 Z M 544.746094 495.582031 " fill-opacity="1" fill-rule="nonzero"/><path fill="#000000" d="M 544.746094 293.988281 L 387.007812 293.988281 C 380.605469 275.9375 363.367188 262.972656 343.152344 262.972656 C 322.9375 262.972656 305.699219 275.9375 299.296875 293.988281 L 265.617188 293.988281 C 257.050781 293.988281 250.109375 300.929688 250.109375 309.496094 C 250.109375 318.058594 257.050781 325.003906 265.617188 325.003906 L 299.296875 325.003906 C 305.699219 343.050781 322.9375 356.019531 343.152344 356.019531 C 363.367188 356.019531 380.605469 343.050781 387.007812 325.003906 L 544.746094 325.003906 C 553.3125 325.003906 560.253906 318.058594 560.253906 309.496094 C 560.253906 300.929688 553.3125 293.988281 544.746094 293.988281 Z M 544.746094 293.988281 " fill-opacity="1" fill-rule="nonzero"/><path fill="#000000" d="M 544.746094 387.03125 L 511.066406 387.03125 C 504.664062 368.984375 487.425781 356.019531 467.210938 356.019531 C 446.996094 356.019531 429.757812 368.984375 423.355469 387.03125 L 265.617188 387.03125 C 257.050781 387.03125 250.109375 393.976562 250.109375 402.539062 C 250.109375 411.105469 257.050781 418.046875 265.617188 418.046875 L 423.355469 418.046875 C 429.757812 436.097656 446.996094 449.0625 467.210938 449.0625 C 487.425781 449.0625 504.664062 436.097656 511.066406 418.046875 L 544.746094 418.046875 C 553.3125 418.046875 560.253906 411.105469 560.253906 402.539062 C 560.253906 393.976562 553.3125 387.03125 544.746094 387.03125 Z M 544.746094 387.03125 " fill-opacity="1" fill-rule="nonzero"/></svg>