<svg xmlns="http://www.w3.org/2000/svg" xmlns:xlink="http://www.w3.org/1999/xlink" width="1080" zoomAndPan="magnify" viewBox="0 0 810 809.999993" height="1080" preserveAspectRatio="xMidYMid meet" version="1.0"><rect x="-81" width="972" fill="#ffffff" y="-80.999999" height="971.999992" fill-opacity="1"/><rect x="-81" width="972" fill="#ffffff" y="-80.999999" height="971.999992" fill-opacity="1"/><path fill="#f1f1f2" d="M 810.089844 405.042969 C 810.089844 181.953125 628.132812 0 405.042969 0 C 181.953125 0 0 181.953125 0 405.042969 C 0 628.132812 181.953125 810.089844 405.042969 810.089844 C 628.132812 810.089844 810.089844 628.132812 810.089844 405.042969 " fill-opacity="1" fill-rule="evenodd"/><path fill="#000000" d="M 369.230469 274.773438 L 369.230469 535.316406 C 369.230469 542.644531 363.273438 548.601562 355.945312 548.601562 L 298.292969 548.601562 C 290.964844 548.601562 285.007812 542.644531 285.007812 535.316406 L 285.007812 274.773438 C 285.007812 267.441406 290.964844 261.484375 298.292969 261.484375 L 355.945312 261.484375 C 363.273438 261.484375 369.230469 267.441406 369.230469 274.773438 " fill-opacity="1" fill-rule="evenodd"/><path fill="#000000" d="M 440.855469 535.316406 L 440.855469 274.773438 C 440.855469 267.441406 446.8125 261.484375 454.144531 261.484375 L 511.785156 261.484375 C 519.117188 261.484375 525.082031 267.441406 525.082031 274.773438 L 525.082031 535.316406 C 525.082031 542.644531 519.117188 548.601562 511.785156 548.601562 L 454.144531 548.601562 C 446.8125 548.601562 440.855469 542.644531 440.855469 535.316406 " fill-opacity="1" fill-rule="evenodd"/></svg>