<svg xmlns="http://www.w3.org/2000/svg" xmlns:xlink="http://www.w3.org/1999/xlink" width="1080" zoomAndPan="magnify" viewBox="0 0 810 809.999993" height="1080" preserveAspectRatio="xMidYMid meet" version="1.0"><rect x="-81" width="972" fill="#ffffff" y="-80.999999" height="971.999992" fill-opacity="1"/><rect x="-81" width="972" fill="#ffffff" y="-80.999999" height="971.999992" fill-opacity="1"/><path fill="#00aeef" d="M 350.921875 685.386719 C 344.34375 684.074219 337.820312 682.523438 331.355469 680.738281 C 324.890625 678.953125 318.5 676.9375 312.179688 674.6875 C 305.859375 672.441406 299.628906 669.96875 293.488281 667.273438 C 287.34375 664.574219 281.308594 661.660156 275.378906 658.527344 C 269.445312 655.394531 263.636719 652.050781 257.945312 648.5 C 252.253906 644.949219 246.699219 641.195312 241.28125 637.242188 C 235.863281 633.289062 230.59375 629.144531 225.472656 624.8125 C 220.351562 620.476562 215.394531 615.964844 210.601562 611.273438 C 225.90625 599.613281 242.1875 589.523438 259.4375 581.007812 C 265.003906 591.269531 271.121094 601.195312 277.792969 610.777344 C 284.460938 620.359375 291.644531 629.539062 299.339844 638.320312 C 307.035156 647.097656 315.195312 655.421875 323.816406 663.292969 C 332.441406 671.164062 341.476562 678.527344 350.921875 685.386719 Z M 350.921875 685.386719 " fill-opacity="1" fill-rule="nonzero"/><path fill="#00aeef" d="M 599.398438 611.273438 C 594.585938 615.988281 589.609375 620.519531 584.46875 624.871094 C 579.324219 629.226562 574.03125 633.382812 568.585938 637.351562 C 563.140625 641.316406 557.558594 645.078125 551.839844 648.636719 C 546.121094 652.199219 540.28125 655.542969 534.316406 658.679688 C 528.351562 661.8125 522.285156 664.722656 516.109375 667.414062 C 509.933594 670.105469 503.667969 672.570312 497.3125 674.804688 C 490.960938 677.039062 484.53125 679.039062 478.03125 680.804688 C 471.53125 682.574219 464.976562 684.101562 458.363281 685.386719 C 467.875 678.550781 476.976562 671.199219 485.664062 663.339844 C 494.351562 655.480469 502.574219 647.164062 510.328125 638.382812 C 518.085938 629.601562 525.324219 620.414062 532.050781 610.820312 C 538.777344 601.230469 544.949219 591.289062 550.5625 581.007812 C 567.78125 589.578125 584.058594 599.667969 599.398438 611.273438 Z M 599.398438 611.273438 " fill-opacity="1" fill-rule="nonzero"/><path fill="#00aeef" d="M 405 4.761719 C 398.375 4.773438 391.753906 4.945312 385.136719 5.277344 C 378.519531 5.613281 371.914062 6.109375 365.320312 6.765625 C 358.726562 7.421875 352.15625 8.242188 345.601562 9.222656 C 339.050781 10.203125 332.523438 11.34375 326.027344 12.640625 C 319.53125 13.941406 313.070312 15.402344 306.644531 17.015625 C 300.21875 18.632812 293.835938 20.40625 287.5 22.335938 C 281.160156 24.265625 274.871094 26.351562 268.636719 28.585938 C 262.398438 30.824219 256.222656 33.214844 250.101562 35.753906 C 243.984375 38.296875 237.929688 40.984375 231.941406 43.824219 C 225.953125 46.660156 220.039062 49.640625 214.199219 52.769531 C 208.355469 55.898438 202.59375 59.164062 196.914062 62.574219 C 191.230469 65.984375 185.636719 69.53125 180.128906 73.214844 C 174.621094 76.902344 169.207031 80.71875 163.886719 84.667969 C 158.566406 88.617188 153.347656 92.695312 148.226562 96.898438 C 143.105469 101.105469 138.089844 105.433594 133.179688 109.886719 C 128.273438 114.335938 123.476562 118.90625 118.789062 123.59375 C 114.105469 128.277344 109.539062 133.078125 105.085938 137.988281 C 100.636719 142.898438 96.3125 147.914062 92.105469 153.035156 C 87.902344 158.160156 83.828125 163.382812 79.878906 168.703125 C 75.929688 174.027344 72.113281 179.441406 68.429688 184.953125 C 64.75 190.460938 61.203125 196.058594 57.792969 201.742188 C 54.386719 207.425781 51.117188 213.1875 47.992188 219.03125 C 44.863281 224.875 41.882812 230.792969 39.046875 236.78125 C 36.210938 242.769531 33.523438 248.828125 30.984375 254.949219 C 28.441406 261.070312 26.054688 267.25 23.816406 273.488281 C 21.578125 279.726562 19.496094 286.015625 17.566406 292.355469 C 15.640625 298.699219 13.867188 305.082031 12.25 311.507812 C 10.632812 317.9375 9.175781 324.398438 7.878906 330.898438 C 6.578125 337.398438 5.4375 343.925781 4.457031 350.480469 C 3.476562 357.035156 2.660156 363.609375 2.003906 370.203125 C 1.34375 376.800781 0.847656 383.40625 0.515625 390.027344 C 0.179688 396.644531 0.0078125 403.269531 0 409.898438 C 22.644531 947.445312 787.4375 947.285156 810 409.894531 C 809.992188 403.265625 809.820312 396.644531 809.484375 390.023438 C 809.152344 383.40625 808.65625 376.796875 807.996094 370.203125 C 807.339844 363.605469 806.519531 357.03125 805.542969 350.476562 C 804.5625 343.921875 803.421875 337.394531 802.121094 330.898438 C 800.824219 324.398438 799.363281 317.933594 797.75 311.507812 C 796.132812 305.078125 794.359375 298.695312 792.429688 292.355469 C 790.503906 286.015625 788.417969 279.722656 786.183594 273.484375 C 783.945312 267.246094 781.554688 261.066406 779.015625 254.945312 C 776.476562 248.824219 773.789062 242.769531 770.953125 236.78125 C 768.117188 230.789062 765.132812 224.875 762.007812 219.03125 C 758.882812 213.1875 755.613281 207.421875 752.203125 201.738281 C 748.796875 196.058594 745.25 190.460938 741.566406 184.949219 C 737.882812 179.441406 734.070312 174.027344 730.121094 168.703125 C 726.171875 163.382812 722.097656 158.160156 717.890625 153.035156 C 713.6875 147.914062 709.359375 142.898438 704.910156 137.988281 C 700.460938 133.074219 695.894531 128.277344 691.207031 123.589844 C 686.523438 118.90625 681.726562 114.335938 676.816406 109.882812 C 671.910156 105.433594 666.894531 101.105469 661.773438 96.898438 C 656.652344 92.695312 651.433594 88.617188 646.109375 84.667969 C 640.789062 80.71875 635.375 76.898438 629.867188 73.214844 C 624.359375 69.53125 618.765625 65.984375 613.085938 62.574219 C 607.402344 59.164062 601.640625 55.898438 595.800781 52.769531 C 589.960938 49.640625 584.042969 46.660156 578.058594 43.820312 C 572.070312 40.984375 566.015625 38.296875 559.898438 35.753906 C 553.777344 33.214844 547.597656 30.824219 541.363281 28.585938 C 535.125 26.351562 528.839844 24.265625 522.5 22.335938 C 516.160156 20.40625 509.78125 18.632812 503.355469 17.015625 C 496.929688 15.402344 490.46875 13.941406 483.972656 12.640625 C 477.472656 11.34375 470.949219 10.203125 464.398438 9.222656 C 457.84375 8.242188 451.273438 7.421875 444.679688 6.765625 C 438.085938 6.109375 431.480469 5.613281 424.863281 5.277344 C 418.246094 4.945312 411.625 4.773438 405 4.761719 Z M 412.863281 712.554688 C 407.863281 712.6875 402.863281 712.695312 397.867188 712.574219 C 392.867188 712.457031 387.875 712.214844 382.890625 711.847656 C 377.902344 711.480469 372.929688 710.988281 367.96875 710.375 C 363.003906 709.757812 358.0625 709.019531 353.136719 708.15625 C 348.210938 707.296875 343.3125 706.3125 338.433594 705.203125 C 333.558594 704.097656 328.714844 702.867188 323.898438 701.519531 C 319.085938 700.171875 314.304688 698.703125 309.566406 697.117188 C 304.824219 695.53125 300.125 693.824219 295.46875 692.003906 C 290.8125 690.183594 286.203125 688.246094 281.644531 686.195312 C 277.082031 684.140625 272.578125 681.976562 268.125 679.703125 C 263.671875 677.425781 259.28125 675.039062 254.949219 672.542969 C 250.617188 670.046875 246.347656 667.445312 242.144531 664.734375 C 237.941406 662.027344 233.808594 659.214844 229.746094 656.300781 C 225.683594 653.382812 221.695312 650.371094 217.78125 647.257812 C 213.871094 644.140625 210.039062 640.933594 206.285156 637.625 C 202.53125 634.320312 198.863281 630.925781 195.28125 627.4375 C 191.699219 623.949219 188.207031 620.371094 184.800781 616.710938 C 181.394531 613.046875 178.085938 609.300781 174.867188 605.472656 C 171.648438 601.644531 168.527344 597.738281 165.503906 593.753906 C 162.484375 589.769531 159.5625 585.714844 156.738281 581.585938 C 153.917969 577.453125 151.203125 573.257812 148.59375 568.992188 C 145.980469 564.726562 143.476562 560.398438 141.082031 556.007812 C 138.6875 551.617188 136.402344 547.171875 134.226562 542.667969 C 132.054688 538.164062 129.996094 533.609375 128.046875 529 C 126.101562 524.394531 124.273438 519.742188 122.558594 515.042969 C 120.84375 510.34375 119.246094 505.605469 117.769531 500.828125 C 116.289062 496.050781 114.933594 491.238281 113.695312 486.390625 C 112.457031 481.546875 111.339844 476.671875 110.34375 471.769531 C 109.351562 466.871094 108.476562 461.945312 107.730469 457 C 106.980469 452.054688 106.355469 447.09375 105.851562 442.121094 C 105.351562 437.144531 104.972656 432.15625 104.71875 427.160156 C 104.464844 422.167969 104.335938 417.167969 104.332031 412.167969 C 104.328125 407.164062 104.449219 402.167969 104.695312 397.171875 C 104.941406 392.175781 105.308594 387.191406 105.804688 382.210938 C 106.296875 377.234375 106.917969 372.273438 107.65625 367.328125 C 108.398438 362.382812 109.261719 357.457031 110.25 352.554688 C 111.238281 347.652344 112.347656 342.773438 113.578125 337.925781 C 114.808594 333.078125 116.15625 328.265625 117.628906 323.484375 C 119.097656 318.703125 120.6875 313.964844 122.394531 309.261719 C 124.101562 304.5625 125.925781 299.90625 127.863281 295.296875 C 129.800781 290.6875 131.855469 286.128906 134.023438 281.621094 C 136.1875 277.113281 138.464844 272.660156 140.855469 268.265625 C 143.242188 263.875 145.738281 259.542969 148.34375 255.273438 C 150.949219 251.003906 153.65625 246.800781 156.472656 242.667969 C 159.285156 238.53125 162.199219 234.472656 165.21875 230.484375 C 168.234375 226.496094 171.347656 222.582031 174.558594 218.75 C 177.773438 214.917969 181.078125 211.167969 184.476562 207.496094 C 187.875 203.828125 191.363281 200.25 194.941406 196.753906 C 198.519531 193.261719 202.179688 189.859375 205.925781 186.546875 C 209.675781 183.234375 213.503906 180.019531 217.410156 176.898438 C 221.316406 173.777344 225.300781 170.757812 229.359375 167.835938 C 233.417969 164.914062 237.546875 162.097656 241.742188 159.378906 C 245.941406 156.664062 250.207031 154.054688 254.535156 151.554688 C 258.863281 149.050781 263.253906 146.65625 267.703125 144.375 C 272.148438 142.089844 276.652344 139.917969 281.207031 137.859375 C 285.765625 135.800781 290.371094 133.855469 295.023438 132.027344 C 299.679688 130.199219 304.375 128.488281 309.113281 126.890625 C 313.851562 125.296875 318.628906 123.824219 323.441406 122.464844 C 328.253906 121.109375 333.097656 119.875 337.96875 118.757812 C 342.84375 117.644531 347.742188 116.652344 352.667969 115.78125 C 357.589844 114.914062 362.53125 114.164062 367.492188 113.542969 C 372.453125 112.917969 377.429688 112.417969 382.414062 112.042969 C 387.398438 111.667969 392.390625 111.417969 397.390625 111.292969 C 402.386719 111.167969 407.386719 111.164062 412.386719 111.289062 C 800.707031 134.644531 801.421875 688.726562 412.863281 712.554688 Z M 279.6875 571.710938 C 297.402344 564.371094 315.625 558.640625 334.351562 554.515625 C 353.078125 550.394531 372.023438 547.945312 391.183594 547.167969 L 391.183594 684.195312 C 379.488281 677.667969 368.308594 670.351562 357.640625 662.25 C 346.972656 654.148438 336.925781 645.34375 327.496094 635.828125 C 318.066406 626.316406 309.347656 616.1875 301.339844 605.449219 C 293.332031 594.710938 286.117188 583.464844 279.6875 571.710938 Z M 413.339844 547.167969 C 433.390625 547.570312 453.230469 549.835938 472.855469 553.960938 C 492.484375 558.089844 511.554688 564.003906 530.074219 571.710938 C 526.730469 577.785156 523.175781 583.726562 519.402344 589.542969 C 515.632812 595.355469 511.65625 601.027344 507.472656 606.554688 C 503.292969 612.082031 498.914062 617.449219 494.347656 622.660156 C 489.777344 627.867188 485.023438 632.90625 480.089844 637.773438 C 475.152344 642.636719 470.050781 647.320312 464.777344 651.816406 C 459.503906 656.3125 454.074219 660.613281 448.488281 664.714844 C 442.90625 668.816406 437.179688 672.714844 431.3125 676.402344 C 425.449219 680.089844 419.457031 683.5625 413.339844 686.820312 Z M 683.257812 410.136719 C 683.316406 418.535156 682.996094 426.917969 682.292969 435.285156 C 681.59375 443.65625 680.515625 451.976562 679.058594 460.246094 C 677.601562 468.519531 675.773438 476.707031 673.574219 484.8125 C 671.375 492.914062 668.8125 500.90625 665.886719 508.777344 C 662.960938 516.648438 659.6875 524.375 656.0625 531.949219 C 652.4375 539.523438 648.476562 546.917969 644.179688 554.132812 C 639.882812 561.347656 635.269531 568.355469 630.335938 575.152344 C 625.402344 581.949219 620.175781 588.507812 614.648438 594.828125 C 597.820312 581.835938 579.871094 570.632812 560.804688 561.226562 C 566.355469 549.457031 571.226562 537.414062 575.421875 525.09375 C 579.613281 512.777344 583.105469 500.261719 585.890625 487.550781 C 588.675781 474.839844 590.742188 462.011719 592.082031 449.070312 C 593.425781 436.125 594.039062 423.148438 593.921875 410.136719 Z M 571.765625 410.136719 C 571.839844 422.328125 571.234375 434.488281 569.953125 446.613281 C 568.667969 458.738281 566.714844 470.757812 564.089844 482.664062 C 561.464844 494.570312 558.183594 506.296875 554.25 517.835938 C 550.316406 529.378906 545.75 540.664062 540.554688 551.695312 C 520.40625 543.183594 499.632812 536.664062 478.234375 532.136719 C 456.839844 527.605469 435.207031 525.148438 413.339844 524.765625 L 413.339844 410.136719 Z M 238.234375 410.136719 L 391.183594 410.136719 L 391.183594 525.003906 C 370.222656 525.792969 349.496094 528.429688 329.003906 532.914062 C 308.515625 537.398438 288.582031 543.65625 269.207031 551.695312 C 264.046875 540.652344 259.515625 529.359375 255.609375 517.816406 C 251.703125 506.269531 248.449219 494.546875 245.84375 482.640625 C 243.238281 470.734375 241.300781 458.71875 240.027344 446.597656 C 238.757812 434.476562 238.160156 422.324219 238.234375 410.136719 Z M 215.839844 410.136719 C 215.773438 423.148438 216.425781 436.128906 217.804688 449.070312 C 219.179688 462.011719 221.269531 474.835938 224.078125 487.546875 C 226.882812 500.253906 230.382812 512.769531 234.582031 525.085938 C 238.78125 537.40625 243.652344 549.453125 249.195312 561.226562 C 230.09375 570.578125 212.148438 581.78125 195.351562 594.828125 C 189.816406 588.511719 184.578125 581.953125 179.636719 575.160156 C 174.695312 568.367188 170.070312 561.363281 165.765625 554.148438 C 161.457031 546.9375 157.488281 539.542969 153.851562 531.96875 C 150.214844 524.394531 146.929688 516.671875 143.996094 508.796875 C 141.0625 500.925781 138.488281 492.9375 136.28125 484.832031 C 134.070312 476.726562 132.230469 468.535156 130.765625 460.261719 C 129.296875 451.988281 128.207031 443.667969 127.496094 435.296875 C 126.785156 426.925781 126.453125 418.539062 126.503906 410.136719 Z M 216.792969 387.734375 L 127.695312 387.734375 C 128.328125 380.464844 129.246094 373.234375 130.449219 366.039062 C 131.652344 358.84375 133.136719 351.707031 134.898438 344.625 C 136.660156 337.546875 138.699219 330.546875 141.011719 323.628906 C 143.320312 316.710938 145.902344 309.894531 148.75 303.175781 C 151.597656 296.460938 154.703125 289.867188 158.066406 283.394531 C 161.433594 276.921875 165.046875 270.589844 168.90625 264.402344 C 172.769531 258.210938 176.867188 252.183594 181.203125 246.316406 C 185.535156 240.453125 190.09375 234.761719 194.875 229.253906 C 194.941406 229.257812 195 229.234375 195.046875 229.1875 C 195.09375 229.140625 195.117188 229.082031 195.113281 229.015625 C 212.027344 242.011719 230.050781 253.214844 249.195312 262.617188 C 239.851562 282.246094 232.457031 302.582031 227.007812 323.625 C 221.558594 344.667969 218.15625 366.039062 216.792969 387.734375 Z M 269.207031 272.152344 C 288.570312 280.238281 308.5 286.542969 328.992188 291.066406 C 349.484375 295.589844 370.214844 298.261719 391.183594 299.082031 L 391.183594 387.734375 L 239.1875 387.734375 C 240.597656 367.710938 243.824219 347.984375 248.871094 328.558594 C 253.917969 309.132812 260.695312 290.328125 269.207031 272.152344 Z M 570.8125 387.734375 L 413.339844 387.734375 L 413.339844 299.082031 C 435.207031 298.707031 456.839844 296.257812 478.238281 291.726562 C 499.636719 287.199219 520.410156 280.671875 540.554688 272.152344 C 549.160156 290.300781 556.003906 309.09375 561.089844 328.527344 C 566.179688 347.957031 569.417969 367.695312 570.8125 387.734375 Z M 560.804688 262.617188 C 579.871094 253.210938 597.820312 242.011719 614.648438 229.015625 C 619.472656 234.511719 624.074219 240.191406 628.449219 246.054688 C 632.828125 251.914062 636.960938 257.941406 640.859375 264.132812 C 644.757812 270.320312 648.402344 276.65625 651.792969 283.136719 C 655.1875 289.617188 658.320312 296.222656 661.1875 302.953125 C 664.058594 309.683594 666.652344 316.515625 668.980469 323.449219 C 671.304688 330.386719 673.351562 337.402344 675.121094 344.503906 C 676.886719 351.601562 678.371094 358.757812 679.570312 365.976562 C 680.769531 373.191406 681.683594 380.445312 682.304688 387.734375 L 593.207031 387.734375 C 591.785156 366.046875 588.347656 344.6875 582.902344 323.648438 C 577.453125 302.609375 570.085938 282.265625 560.804688 262.617188 Z M 458.601562 138.457031 C 465.199219 139.765625 471.742188 141.308594 478.226562 143.089844 C 484.710938 144.871094 491.125 146.882812 497.464844 149.125 C 503.804688 151.371094 510.054688 153.839844 516.21875 156.535156 C 522.378906 159.230469 528.433594 162.144531 534.386719 165.277344 C 540.339844 168.410156 546.167969 171.753906 551.878906 175.308594 C 557.589844 178.863281 563.164062 182.617188 568.601562 186.574219 C 574.042969 190.53125 579.332031 194.679688 584.46875 199.015625 C 589.609375 203.355469 594.585938 207.875 599.398438 212.574219 C 584.09375 224.234375 567.8125 234.320312 550.5625 242.839844 C 544.96875 232.558594 538.820312 222.621094 532.117188 213.03125 C 525.410156 203.4375 518.191406 194.253906 510.453125 185.472656 C 502.71875 176.691406 494.515625 168.371094 485.847656 160.507812 C 477.175781 152.648438 468.097656 145.296875 458.601562 138.457031 Z M 530.3125 252.371094 C 511.75 260.066406 492.636719 265.976562 472.96875 270.105469 C 453.304688 274.230469 433.425781 276.5 413.339844 276.917969 L 413.339844 137.265625 C 419.480469 140.492188 425.5 143.941406 431.390625 147.609375 C 437.28125 151.277344 443.027344 155.160156 448.632812 159.25 C 454.238281 163.34375 459.6875 167.632812 464.976562 172.125 C 470.269531 176.617188 475.386719 181.296875 480.335938 186.164062 C 485.28125 191.03125 490.042969 196.074219 494.621094 201.292969 C 499.195312 206.511719 503.574219 211.890625 507.757812 217.429688 C 511.9375 222.96875 515.910156 228.65625 519.675781 234.484375 C 523.441406 240.316406 526.984375 246.277344 530.3125 252.371094 Z M 391.183594 139.886719 L 391.183594 276.679688 C 372.015625 275.960938 353.066406 273.539062 334.332031 269.414062 C 315.601562 265.289062 297.386719 259.527344 279.6875 252.132812 C 286.136719 240.410156 293.367188 229.191406 301.382812 218.476562 C 309.398438 207.765625 318.121094 197.664062 327.550781 188.171875 C 336.976562 178.679688 347.019531 169.890625 357.675781 161.804688 C 368.335938 153.714844 379.503906 146.410156 391.183594 139.886719 Z M 259.4375 242.839844 C 242.152344 234.375 225.871094 224.285156 210.601562 212.574219 C 215.429688 207.851562 220.425781 203.3125 225.585938 198.953125 C 230.75 194.597656 236.0625 190.433594 241.527344 186.464844 C 246.992188 182.492188 252.59375 178.726562 258.332031 175.167969 C 264.074219 171.605469 269.933594 168.257812 275.917969 165.125 C 281.902344 161.988281 287.988281 159.078125 294.1875 156.390625 C 300.382812 153.699219 306.667969 151.238281 313.042969 149.007812 C 319.417969 146.777344 325.863281 144.78125 332.382812 143.019531 C 338.90625 141.257812 345.480469 139.738281 352.113281 138.457031 C 342.523438 145.242188 333.355469 152.554688 324.601562 160.390625 C 315.851562 168.226562 307.578125 176.535156 299.777344 185.320312 C 291.980469 194.105469 284.707031 203.304688 277.960938 212.921875 C 271.214844 222.542969 265.042969 232.511719 259.4375 242.839844 Z M 259.4375 242.839844 " fill-opacity="1" fill-rule="nonzero"/></svg>