<svg xmlns="http://www.w3.org/2000/svg" xmlns:xlink="http://www.w3.org/1999/xlink" width="1080" zoomAndPan="magnify" viewBox="0 0 810 809.999993" height="1080" preserveAspectRatio="xMidYMid meet" version="1.0"><defs><clipPath id="9b8a5a1fd2"><path d="M 0 0 L 809.980469 0 L 809.980469 809.980469 L 0 809.980469 Z M 0 0 " clip-rule="nonzero"/></clipPath><clipPath id="5bc78a860c"><path d="M 141.554688 138.914062 L 668.4375 138.914062 L 668.4375 665.796875 L 141.554688 665.796875 Z M 141.554688 138.914062 " clip-rule="nonzero"/></clipPath></defs><rect x="-81" width="972" fill="#ffffff" y="-80.999999" height="971.999992" fill-opacity="1"/><rect x="-81" width="972" fill="#ffffff" y="-80.999999" height="971.999992" fill-opacity="1"/><g clip-path="url(#9b8a5a1fd2)"><path fill="#66b7af" d="M 810.070312 405.035156 C 810.070312 181.949219 628.121094 0 405.035156 0 C 181.949219 0 0 181.949219 0 405.035156 C 0 628.121094 181.949219 810.070312 405.035156 810.070312 C 628.121094 810.070312 810.070312 628.121094 810.070312 405.035156 " fill-opacity="1" fill-rule="evenodd"/></g><path fill="#66b7af" d="M 369.222656 274.769531 L 369.222656 535.304688 C 369.222656 542.632812 363.265625 548.589844 355.9375 548.589844 L 298.289062 548.589844 C 290.957031 548.589844 285 542.632812 285 535.304688 L 285 274.769531 C 285 267.4375 290.957031 261.480469 298.289062 261.480469 L 355.9375 261.480469 C 363.265625 261.480469 369.222656 267.4375 369.222656 274.769531 " fill-opacity="1" fill-rule="evenodd"/><path fill="#66b7af" d="M 440.847656 535.304688 L 440.847656 274.769531 C 440.847656 267.4375 446.804688 261.480469 454.136719 261.480469 L 511.777344 261.480469 C 519.105469 261.480469 525.070312 267.4375 525.070312 274.769531 L 525.070312 535.304688 C 525.070312 542.632812 519.105469 548.589844 511.777344 548.589844 L 454.136719 548.589844 C 446.804688 548.589844 440.847656 542.632812 440.847656 535.304688 " fill-opacity="1" fill-rule="evenodd"/><g clip-path="url(#5bc78a860c)"><path fill="#ffffff" d="M 404.996094 138.914062 C 259.402344 138.914062 141.554688 256.738281 141.554688 402.355469 C 141.554688 547.953125 259.378906 665.796875 404.996094 665.796875 C 550.59375 665.796875 668.4375 547.972656 668.4375 402.355469 C 668.4375 256.757812 550.613281 138.914062 404.996094 138.914062 Z M 404.996094 634.804688 C 276.824219 634.804688 172.550781 530.527344 172.550781 402.355469 C 172.550781 274.183594 276.824219 169.90625 404.996094 169.90625 C 533.167969 169.90625 637.445312 274.183594 637.445312 402.355469 C 637.445312 530.527344 533.167969 634.804688 404.996094 634.804688 Z M 404.996094 634.804688 " fill-opacity="1" fill-rule="nonzero"/></g><path fill="#ffffff" d="M 544.464844 495.335938 L 386.835938 495.335938 C 380.4375 477.296875 363.214844 464.339844 343.011719 464.339844 C 322.808594 464.339844 305.585938 477.296875 299.1875 495.335938 L 265.527344 495.335938 C 256.96875 495.335938 250.03125 502.273438 250.03125 510.832031 C 250.03125 519.390625 256.96875 526.328125 265.527344 526.328125 L 299.1875 526.328125 C 305.585938 544.363281 322.808594 557.320312 343.011719 557.320312 C 363.214844 557.320312 380.4375 544.363281 386.835938 526.328125 L 544.464844 526.328125 C 553.023438 526.328125 559.960938 519.390625 559.960938 510.832031 C 559.960938 502.273438 553.023438 495.335938 544.464844 495.335938 Z M 544.464844 495.335938 " fill-opacity="1" fill-rule="nonzero"/><path fill="#ffffff" d="M 544.464844 293.878906 L 386.835938 293.878906 C 380.4375 275.84375 363.214844 262.886719 343.011719 262.886719 C 322.808594 262.886719 305.585938 275.84375 299.1875 293.878906 L 265.527344 293.878906 C 256.96875 293.878906 250.03125 300.816406 250.03125 309.375 C 250.03125 317.933594 256.96875 324.871094 265.527344 324.871094 L 299.1875 324.871094 C 305.585938 342.910156 322.808594 355.867188 343.011719 355.867188 C 363.214844 355.867188 380.4375 342.910156 386.835938 324.871094 L 544.464844 324.871094 C 553.023438 324.871094 559.960938 317.933594 559.960938 309.375 C 559.960938 300.816406 553.023438 293.878906 544.464844 293.878906 Z M 544.464844 293.878906 " fill-opacity="1" fill-rule="nonzero"/><path fill="#ffffff" d="M 544.464844 386.859375 L 510.808594 386.859375 C 504.410156 368.820312 487.1875 355.867188 466.984375 355.867188 C 446.78125 355.867188 429.554688 368.820312 423.160156 386.859375 L 265.527344 386.859375 C 256.96875 386.859375 250.03125 393.796875 250.03125 402.355469 C 250.03125 410.914062 256.96875 417.851562 265.527344 417.851562 L 423.160156 417.851562 C 429.554688 435.890625 446.78125 448.84375 466.984375 448.84375 C 487.1875 448.84375 504.410156 435.890625 510.808594 417.851562 L 544.464844 417.851562 C 553.023438 417.851562 559.960938 410.914062 559.960938 402.355469 C 559.960938 393.796875 553.023438 386.859375 544.464844 386.859375 Z M 544.464844 386.859375 " fill-opacity="1" fill-rule="nonzero"/></svg>