<svg xmlns="http://www.w3.org/2000/svg" xmlns:xlink="http://www.w3.org/1999/xlink" width="1080" zoomAndPan="magnify" viewBox="0 0 810 809.999993" height="1080" preserveAspectRatio="xMidYMid meet" version="1.0"><defs><clipPath id="21be615c6f"><path d="M 4.316406 256 L 514 256 L 514 804 L 4.316406 804 Z M 4.316406 256 " clip-rule="nonzero"/></clipPath></defs><rect x="-81" width="972" fill="#ffffff" y="-80.999999" height="971.999992" fill-opacity="1"/><rect x="-81" width="972" fill="#ffffff" y="-80.999999" height="971.999992" fill-opacity="1"/><path fill="#66b7af" d="M 438.761719 553.03125 C 390.773438 553.03125 343.839844 535.515625 308.460938 500.074219 C 288.675781 480.351562 288.675781 448.421875 308.398438 428.695312 C 328.121094 408.972656 360.085938 408.972656 379.777344 428.664062 C 414.253906 463.082031 474.078125 459.355469 513.121094 420.25 L 668.828125 264.542969 C 689.667969 243.792969 701.5625 216.675781 701.5625 190.152344 C 701.5625 174.3125 697.339844 151.324219 677.335938 131.261719 C 655.875 109.765625 631.242188 106.226562 614.035156 107.09375 C 588.660156 108.246094 563.78125 119.832031 543.992188 139.617188 L 454.664062 228.882812 C 433.789062 208.011719 348.03125 192.699219 324.800781 215.964844 L 472.523438 68.269531 C 510.105469 30.6875 558.59375 8.664062 609.191406 6.242188 C 661.960938 3.820312 711.472656 22.796875 748.558594 59.882812 C 783.316406 94.578125 802.449219 140.859375 802.449219 190.183594 C 802.417969 243.296875 779.710938 296.441406 740.078125 335.949219 L 584.402344 491.625 C 543.714844 532.46875 490.664062 553.03125 438.761719 553.03125 Z M 438.761719 553.03125 " fill-opacity="1" fill-rule="nonzero"/><g clip-path="url(#21be615c6f)"><path fill="#66b7af" d="M 368.128906 256.964844 C 416.054688 256.964844 463.019531 274.480469 498.460938 309.921875 C 518.214844 329.644531 518.183594 361.574219 498.460938 381.296875 C 478.765625 401.023438 446.804688 401.023438 427.082031 381.296875 C 392.636719 346.914062 332.8125 350.671875 293.738281 389.714844 L 138.03125 545.421875 C 117.222656 566.171875 105.292969 593.285156 105.292969 619.8125 C 105.292969 635.589844 109.519531 658.636719 129.550781 678.703125 C 151.015625 700.136719 175.644531 703.738281 192.855469 702.929688 C 218.230469 701.71875 243.109375 690.132812 262.894531 670.347656 L 352.132812 581.140625 C 373.003906 601.984375 458.765625 617.296875 482.027344 594.03125 L 334.304688 741.726562 C 296.75 779.308594 248.234375 801.332031 197.667969 803.753906 C 144.867188 806.238281 95.355469 787.230469 58.238281 750.113281 C 23.480469 715.417969 4.378906 669.136719 4.378906 619.8125 C 4.410156 566.699219 27.082031 513.554688 66.71875 474.046875 L 222.394531 318.371094 C 263.144531 277.585938 316.257812 256.964844 368.128906 256.964844 Z M 368.128906 256.964844 " fill-opacity="1" fill-rule="nonzero"/></g></svg>